<svg width="114" height="114" viewBox="0 0 114 114" fill="none" xmlns="http://www.w3.org/2000/svg">
<path d="M74.2566 113.25C73.1504 110.641 72.0442 107.978 70.9381 105.261C69.8319 102.543 68.7257 99.7717 67.6195 96.9456C66.5133 94.0109 65.4071 91.1304 64.3009 88.3043C62.7522 84.2826 61.3142 81.0217 59.9867 78.5217C58.7699 76.0217 57.3872 74.0109 55.8385 72.4891C54.4004 70.8587 52.5752 69.4456 50.3628 68.25L58.9911 69.2283C55.8938 69.3369 53.2389 69.4456 51.0265 69.5543C48.9248 69.5543 46.3252 69.5 43.2279 69.3913L44.8872 56.0217C46.6571 56.3478 47.9292 56.5652 48.7035 56.6739C49.5885 56.7826 50.4181 56.837 51.1925 56.837C54.4004 56.837 57.4425 56.0761 60.3186 54.5543C63.1947 52.9239 65.573 50.5326 67.4535 47.3804C69.3341 44.1196 70.2743 40.0978 70.2743 35.3152C70.2743 28.25 68.7257 22.8152 65.6283 19.0109C62.531 15.0978 58.3827 13.1413 53.1836 13.1413C51.7456 13.1413 50.3628 13.3043 49.0354 13.6304C47.708 13.8478 46.3252 14.2283 44.8872 14.7717L46.2146 8.08695V79.663C46.2146 85.5326 46.4912 89.8804 47.0442 92.7065C47.5973 95.5326 48.427 97.3804 49.5332 98.25C50.75 99.0108 52.354 99.4456 54.3451 99.5543C54.7876 100.641 55.0642 102.435 55.1748 104.935C55.396 107.435 55.5066 109.88 55.5066 112.272C53.4049 112.163 50.5841 112.054 47.0442 111.946C43.5044 111.946 39.854 111.891 36.0929 111.783C32.3319 111.783 29.1239 111.783 26.469 111.783C22.0442 111.783 17.6195 111.783 13.1947 111.783C8.76991 111.891 4.62168 112.054 0.75 112.272C0.75 109.446 0.86062 107 1.08186 104.935C1.3031 102.87 1.63496 101.076 2.07743 99.5543C5.06416 99.3369 7.33186 98.7935 8.88053 97.9239C10.5398 96.9456 11.646 95.2065 12.1991 92.7065C12.7522 90.0978 13.0288 86.2935 13.0288 81.2935V31.4022C13.0288 26.5109 12.7522 22.8696 12.1991 20.4783C11.646 18.087 10.5398 16.4565 8.88053 15.587C7.33186 14.6087 5.00885 13.9022 1.9115 13.4674C1.46903 11.837 1.13717 9.6087 0.915929 6.78261C0.80531 3.95652 0.75 2 0.75 0.913049C4.06858 1.02174 8.21681 1.18479 13.1947 1.40217C18.1726 1.51087 23.5376 1.56521 29.2898 1.56521C32.4978 1.56521 37.2544 1.45652 43.5597 1.23913C49.865 0.913045 56.5575 0.75 63.6372 0.75C73.2611 0.75 81.115 2.16304 87.1991 4.98913C93.2832 7.70652 97.7633 11.4022 100.639 16.0761C103.515 20.75 104.954 25.8587 104.954 31.4022C104.954 38.6848 103.626 44.8804 100.971 49.9891C98.3164 54.9891 94.7212 58.8478 90.1858 61.5652C85.6504 64.2826 80.5619 65.913 74.9204 66.4565L78.9027 64.337C82.2212 65.2065 84.8761 66.4022 86.8673 67.9239C88.969 69.337 90.9602 71.6196 92.8407 74.7717C94.8319 77.8152 97.3208 82.3261 100.308 88.3043C101.746 91.0217 103.018 93.1413 104.124 94.663C105.341 96.1848 106.613 97.2717 107.94 97.9239C109.378 98.4674 111.148 98.8478 113.25 99.0652C113.25 101.457 113.084 103.685 112.752 105.75C112.42 107.815 111.978 109.826 111.425 111.783C102.686 111.783 95.1084 111.891 88.6925 112.109C82.3872 112.326 77.5752 112.707 74.2566 113.25Z" fill="black"/>
</svg>
